# xmcd
#
# Track frame offsets:
# 150
# 7441
# 12465
# 27520
# 41431
# 54158
# 72845
# 92671
# 111464
# 126178
# 141264
# 155351
# 171527
# 188112
# 203202
# 221188
# 241639
#
# Disc length: 3481 seconds
#
#
# Revision: 0
# Processed by: cddbd v1.5.2PL0 Copyright (c) Steve Scherf et al.
# Submitted via: FreeRIP 2.96 
#
DISCID=f90d9711
DTITLE=TCHE BARBARIDADE - Ao Vivo Em Porto Alegre
DYEAR=2007
DGENRE=Vocal
TTITLE0=Hino Rio Grandense
TTITLE1=Na Palma da Mão
TTITLE2=Me Chama no Fole
TTITLE3=Vanera do Povão
TTITLE4=La Vem o Tche
TTITLE5=O Que Tiver Que Vir Vira
TTITLE6=Apaixonado
TTITLE7=É Sabado o Dia
TTITLE8=Fusca do Tche
TTITLE9=Pancada de Vanera
TTITLE10=Nas Flores do Jardim
TTITLE11=Na Batucada do Tche
TTITLE12=Choram as Rosas
TTITLE13=Medley
TTITLE14=Bica que Bica
TTITLE15=Minha Nega
TTITLE16=Voce Virou Saudade
EXTD=
EXTT0=
EXTT1=
EXTT2=
EXTT3=
EXTT4=
EXTT5=
EXTT6=
EXTT7=
EXTT8=
EXTT9=
EXTT10=
EXTT11=
EXTT12=
EXTT13=
EXTT14=
EXTT15=
EXTT16=
PLAYORDER=
